<?xml version="1.0" encoding="UTF-8" standalone="no"?>
<!-- Created with Inkscape (http://www.inkscape.org/) -->

<svg
   xmlns:dc="http://purl.org/dc/elements/1.1/"
   xmlns:cc="http://creativecommons.org/ns#"
   xmlns:rdf="http://www.w3.org/1999/02/22-rdf-syntax-ns#"
   xmlns:svg="http://www.w3.org/2000/svg"
   xmlns="http://www.w3.org/2000/svg"
   xmlns:sodipodi="http://sodipodi.sourceforge.net/DTD/sodipodi-0.dtd"
   xmlns:inkscape="http://www.inkscape.org/namespaces/inkscape"
   id="svg2985"
   version="1.1"
   inkscape:version="0.48.5 r10040"
   width="624"
   height="399"
   sodipodi:docname="Honey_Bee4.jpg">
  <metadata
     id="metadata2991">
    <rdf:RDF>
      <cc:Work
         rdf:about="">
        <dc:format>image/svg+xml</dc:format>
        <dc:type
           rdf:resource="http://purl.org/dc/dcmitype/StillImage" />
        <dc:title></dc:title>
      </cc:Work>
    </rdf:RDF>
  </metadata>
  <defs
     id="defs2989" />
  <sodipodi:namedview
     pagecolor="#ffffff"
     bordercolor="#666666"
     borderopacity="1"
     objecttolerance="10"
     gridtolerance="10"
     guidetolerance="10"
     inkscape:pageopacity="0"
     inkscape:pageshadow="2"
     inkscape:window-width="2560"
     inkscape:window-height="1377"
     id="namedview2987"
     showgrid="false"
     inkscape:zoom="0.74561404"
     inkscape:cx="218.02151"
     inkscape:cy="-38.902502"
     inkscape:window-x="-8"
     inkscape:window-y="-8"
     inkscape:window-maximized="1"
     inkscape:current-layer="svg2985" />
  <path
     style="fill:#000000;stroke:none;stroke-width:1px;stroke-linecap:butt;stroke-linejoin:miter;stroke-opacity:1"
     d="m 334.76931,61.385628 c 5.8383,-2.027606 68.87517,-50.397313 65.40773,-53.8647578 -6.75832,-6.75831847 -44.51268,27.9547738 -49.75988,31.5784158 -8.50889,5.876113 -25.96965,12.693465 -28.66046,18.679598 -9.71044,-7.485083 -19.16349,-10.124907 -28.24083,0.761679 -5.27499,6.326365 -96.64327,-66.3330878 -82.98107,-38.882554 1.76383,3.54394 69.51178,42.339836 71.63944,44.467499 -8.05335,0.329003 -11.82537,4.841991 -13.82263,10.83375 -14.45297,-3.509091 -17.17965,21.499479 -6.67812,27.192592 3.57578,12.47838 4.82642,25.12912 2.55349,20.37885 -1.14703,-2.39724 -18.13958,-12.6108 -21.21391,-5.97283 -6.57328,-11.50135 -36.02657,-26.777218 -38.99183,-25.886599 -6.19252,-35.788916 -34.48247,-44.045523 -54.47288,-54.330758 1.81643,6.402264 -7.40872,6.189916 -5.81495,7.455795 9.80564,7.244285 27.01186,11.56573 35.50568,20.908563 6.19408,6.813217 19.05787,28.586366 16.79639,36.635399 10.90497,14.46296 27.98484,20.54448 42.94998,28.56401 1.22175,4.16508 0.11982,5.70526 16.8333,12.03225 -2.34977,4.69954 -44.96511,-4.89234 -48.6032,-6.10504 -26.29205,-8.76401 -173.731472,-50.522498 -198.2061877,-18.9671 -24.9014503,32.10559 49.5353737,92.1759 84.8777707,69.22992 -19.035639,25.0864 76.218297,55.5014 93.650047,42.67597 5.92494,-4.4437 73.80149,-40.07273 83.69233,-41.25344 1.19652,2.23413 4.42478,13.83468 -0.34508,14.262 -10.67041,0.95592 -22.59349,7.12309 -21.67624,15.16633 -30.80152,7.3567 -53.61044,18.04935 -49.1053,27.71006 -10.55974,10.55973 -21.57419,20.50689 -16.35912,34.61496 -2.79634,4.1945 -31.99594,23.10154 -47.10115,26.14517 -4.90725,0.98878 7.33807,0.73846 6.0848,7.9956 -1.24794,7.22624 39.32276,-12.14 45.04685,-26.79103 21.82278,-16.02064 12.00088,-18.97956 16.83331,-32.95533 11.64191,-0.21595 40.62826,-20.44879 50.02572,-27.97648 11.67289,7.07197 -29.85392,50.068 -34.30809,84.86055 -13.6038,8.54813 -23.69257,21.37822 -19.44422,28.64403 -15.96604,19.78548 -35.72152,28.39502 -31.0441,30.73372 0.6203,0.31016 3.62993,0.82817 4.48782,2.16518 1.24314,1.93744 -0.0969,3.27323 0.66683,2.84944 19.89016,-11.03698 23.69319,-18.57811 33.21917,-32.13227 2.00367,2.69045 19.1208,-11.00007 22.47374,-29.00005 9.92959,-1.99425 14.99464,-21.27123 21.34087,-37.85778 -2.54912,55.83775 37.11109,121.16406 66.26631,119.1371 21.21551,-0.42077 71.09262,-66.50151 65.31794,-121.74507 2.55873,12.03996 19.23852,37.3383 27.28813,34.36037 0.92951,13.42077 14.38502,29.31733 21.51982,27.08721 13.56738,12.7831 25.49962,25.23357 36.15918,29.82351 3.0332,1.30608 0.11856,-2.46104 2.9928,-4.61515 11.16743,-8.36951 5.31635,-6.25578 1.30399,-8.17957 -1.91575,-0.91854 -38.59737,-21.24783 -34.82002,-25.59456 6.07012,-6.98508 -11.07574,-18.52791 -21.83772,-23.62207 1.4122,-14.44714 -11.18346,-31.28275 -24.65962,-45.21228 -14.06998,-14.54334 -15.53317,-24.98574 -16.48175,-36.08845 11.33812,-2.69342 27.65305,21.73938 52.65593,22.86969 -1.62914,11.89138 8.84422,31.15773 20.14062,31.63233 7.45041,15.99474 22.28571,22.18788 42.42531,28.91742 1.64829,0.55076 -0.49324,-3.26111 0.95163,-4.70597 8.55033,-8.55034 8.57575,-5.74925 2.96361,-6.87557 -3.72778,-0.74815 -38.46109,-17.02792 -41.25344,-22.76053 1.08911,-13.84747 -4.73253,-28.06873 -16.54543,-36.54027 4.17473,-8.11435 -5.88934,-10.5488 -17.00263,-12.41855 -46.25047,-7.78137 -40.59607,-18.32102 -43.03161,-20.15255 -8.38091,-2.92321 -14.00874,-3.78949 -17.30163,-4.4862 -0.79029,-1.91865 1.79834,-5.95326 3.66903,-10.45038 22.90547,10.66248 66.26361,31.53691 91.16192,35.33589 22.86951,3.48943 100.43076,-39.84436 75.74855,-51.22084 10.02203,3.25495 41.68601,-5.55375 49.78864,-13.27697 9.44608,-9.00376 50.34671,-52.87783 34.61496,-62.591428 -55.1367,-34.044282 -180.14121,23.136128 -216.69911,36.985848 -14.23982,5.39466 -22.3782,7.02312 -25.08294,4.07721 -2.16597,-2.3591 8.6078,-3.75555 9.91234,-15.73107 12.01156,-2.44103 27.63314,-13.98561 36.09389,-30.912982 5.86377,-3.96644 13.24774,-14.397982 13.21748,-23.995827 -0.0111,-3.531497 -0.13726,-8.645481 1.66157,-10.739526 5.58332,-6.499642 17.6265,-12.94015 26.9669,-18.007484 11.01721,-5.977034 8.23856,-11.002877 2.66724,-10.017 -4.24226,-7.010623 -3.28757,-4.347125 -10.07626,-1.12617 -16.31621,7.741378 -27.65771,17.561866 -30.16955,27.383749 -7.90714,1.076082 -8.06797,24.558073 -10.017,30.702993 -10.06771,-3.131271 -24.15394,15.756699 -36.13447,25.152367 -7.09533,-0.92956 -15.60237,8.44764 -18.55865,7.34564 -0.40058,-1.64808 -6.28673,-7.39775 -4.14357,-9.39188 12.37199,-11.511697 11.27651,-41.116187 -5.00801,-35.186585 -4.53754,-2.033847 -13.37592,-3.474098 -13.9204,-9.731707 z"
     id="path2999"
     inkscape:connector-curvature="0"
     sodipodi:nodetypes="csscsscccsccccscccsscccscccsscccccssscccccccsssscscccsssccscccscssssccssscsccccscc" />
</svg>
